<svg width="28" height="22" viewBox="0 0 28 22" fill="none" xmlns="http://www.w3.org/2000/svg">
<path d="M19.9686 9.77107C19.6912 7.00626 17.5306 5.00033 14.8266 5.00033C13.0251 5.00033 11.3757 5.87836 10.4475 7.28559C9.5278 5.86016 7.94595 5 6.17336 5C3.4697 5 1.30868 7.00593 1.0317 9.77074C1.00978 9.89286 0.919889 10.5356 1.19321 11.5837C1.58712 13.0955 2.49699 14.4706 3.82378 15.5595L10.4431 21.0001L17.1761 15.5598C18.5029 14.4706 19.4128 13.0959 19.8067 11.5837C20.08 10.5359 19.9902 9.89319 19.9686 9.77107ZM19.0953 11.4321C18.7357 12.8129 17.9022 14.0709 16.6872 15.0677L10.4475 20.1098L4.31489 15.069C3.09772 14.0702 2.26459 12.8126 1.90466 11.4318C1.64595 10.4399 1.75229 9.87962 1.75265 9.87598L1.75813 9.84255C1.99565 7.42028 3.85229 5.66191 6.17336 5.66191C7.88602 5.66191 9.39369 6.61507 10.1092 8.14905L10.4457 8.87153L10.7822 8.14905C11.4864 6.63857 13.0737 5.66224 14.8269 5.66224C17.1476 5.66224 19.0046 7.42062 19.2469 9.87433C19.2476 9.87962 19.354 10.4403 19.0953 11.4321Z" fill="#1B1A17" stroke="#1B1A17" stroke-width="0.75"/>
<ellipse cx="21.5" cy="6.50004" rx="6.5" ry="6.50004" fill="#E6C8B4"/>
<path d="M22.0977 3.28125V9H21.375V4.18359L19.918 4.71484V4.0625L21.9844 3.28125H22.0977Z" fill="#1B1A17"/>
<path d="M22.0977 3.28125H23.0977V2.28125H22.0977V3.28125ZM22.0977 9V10H23.0977V9H22.0977ZM21.375 9H20.375V10H21.375V9ZM21.375 4.18359H22.375V2.75459L21.0324 3.24409L21.375 4.18359ZM19.918 4.71484H18.918V6.14385L20.2605 5.65434L19.918 4.71484ZM19.918 4.0625L19.5643 3.12712L18.918 3.37149V4.0625H19.918ZM21.9844 3.28125V2.28125H21.8017L21.6307 2.34587L21.9844 3.28125ZM21.0977 3.28125V9H23.0977V3.28125H21.0977ZM22.0977 8H21.375V10H22.0977V8ZM22.375 9V4.18359H20.375V9H22.375ZM21.0324 3.24409L19.5754 3.77534L20.2605 5.65434L21.7176 5.12309L21.0324 3.24409ZM20.918 4.71484V4.0625H18.918V4.71484H20.918ZM20.2716 4.99788L22.338 4.21663L21.6307 2.34587L19.5643 3.12712L20.2716 4.99788ZM21.9844 4.28125H22.0977V2.28125H21.9844V4.28125Z" fill="#1B1A17"/>
</svg>
